<svg width="40" height="45" viewBox="0 0 40 45" fill="none" xmlns="http://www.w3.org/2000/svg">
<path fill-rule="evenodd" clip-rule="evenodd" d="M22.4967 0.674324C20.9517 -0.224774 19.0483 -0.224775 17.5034 0.674323L2.49665 9.40771C0.951717 10.3068 0 11.9684 0 13.7666V31.2334C0 33.0316 0.951717 34.6932 2.49665 35.5923L17.5034 44.3257C19.0483 45.2248 20.9517 45.2248 22.4967 44.3257L37.5033 35.5923C39.0483 34.6932 40 33.0316 40 31.2334V13.7666C40 11.9684 39.0483 10.3068 37.5033 9.40771L22.4967 0.674324ZM21.2483 6.23937L33.3463 13.28C34.1187 13.7295 34.5946 14.5603 34.5946 15.4594V29.5406C34.5946 30.4397 34.1187 31.2705 33.3463 31.72L21.2483 38.7606C20.4759 39.2102 19.5241 39.2102 18.7517 38.7606L6.65373 31.72C5.88126 31.2705 5.4054 30.4397 5.4054 29.5406V15.4594C5.4054 14.5603 5.88126 13.7295 6.65373 13.28L18.7517 6.23937C19.5241 5.78982 20.4759 5.78982 21.2483 6.23937ZM9.07125 15.4599L13.203 13.0249C13.411 12.9023 13.6726 13.0535 13.6726 13.2965V25.9099L19.3421 22.3661C19.7451 22.1142 20.2549 22.1142 20.6579 22.3661L26.3274 25.9099V13.2965C26.3274 13.0535 26.589 12.9023 26.797 13.0249L30.9288 15.4599C31.3117 15.6856 31.547 16.0991 31.547 16.5462V28.4403C31.547 28.8831 31.3162 29.2932 30.9392 29.5204L27.5631 31.5547C27.1716 31.7906 26.6837 31.7925 26.2904 31.5597L20 27.8358L13.7096 31.5597C13.3163 31.7925 12.8284 31.7906 12.4369 31.5547L9.0608 29.5204C8.68381 29.2932 8.45299 28.8831 8.45299 28.4403V16.5462C8.45299 16.0991 8.68835 15.6856 9.07125 15.4599Z" fill="#0260FD"/>
<path fill-rule="evenodd" clip-rule="evenodd" d="M9.07125 15.4599L13.203 13.0249C13.411 12.9023 13.6726 13.0535 13.6726 13.2965V25.9099L19.3421 22.3661C19.7451 22.1142 20.2549 22.1142 20.6579 22.3661L26.3274 25.9099V13.2965C26.3274 13.0535 26.589 12.9023 26.797 13.0249L30.9288 15.4599C31.3117 15.6856 31.547 16.0991 31.547 16.5462V28.4403C31.547 28.8831 31.3162 29.2932 30.9392 29.5204L27.5631 31.5547C27.1716 31.7906 26.6837 31.7925 26.2904 31.5597L20 27.8358L13.7096 31.5597C13.3163 31.7925 12.8284 31.7906 12.4369 31.5547L9.0608 29.5204C8.68381 29.2932 8.45299 28.8831 8.45299 28.4403V16.5462C8.45299 16.0991 8.68835 15.6856 9.07125 15.4599Z" fill="#0260FD"/>
<path d="M9.07125 15.4599L13.203 13.0249C13.411 12.9023 13.6726 13.0535 13.6726 13.2965V25.9099L19.3421 22.3661C19.7451 22.1142 20.2549 22.1142 20.6579 22.3661L26.3274 25.9099V13.2965C26.3274 13.0535 26.589 12.9023 26.797 13.0249L30.9288 15.4599C31.3117 15.6856 31.547 16.0991 31.547 16.5462V28.4403C31.547 28.8831 31.3162 29.2932 30.9392 29.5204L27.5631 31.5547C27.1716 31.7906 26.6837 31.7925 26.2904 31.5597L20 27.8358L13.7096 31.5597C13.3163 31.7925 12.8284 31.7906 12.4369 31.5547L9.0608 29.5204C8.68381 29.2932 8.45299 28.8831 8.45299 28.4403V16.5462C8.45299 16.0991 8.68835 15.6856 9.07125 15.4599Z" fill="#0260FD"/>
</svg>
